# xmcd
#
# Track frame offsets:
#	150
#	23545
#	37240
#	51775
#	75757
#	101955
#	120757
#	132007
#	148260
#	165347
#
# Disc length: 2392
#
# Revision: 1
# Processed by: cddbd v1.5.1PL0 Copyright (c) Steve Scherf et al.
# Submitted via: CDex 1.51
# Normalized: r0:TRMNUM
#
DISCID=7409560a
DTITLE=Hi5 - beat's come
DYEAR=2001
DGENRE=Rock
TTITLE0=MIC CHECK [on the stage now!!] - Hi5
TTITLE1=Song.5 - Hi5
TTITLE2=DISCO-SOUND-FEEDBACK-OK - Hi5
TTITLE3=One thing - Hi5
TTITLE4=small circle - Hi5
TTITLE5=everlasting - Hi5
TTITLE6=Mr. SNOOTY - Hi5
TTITLE7=FELLOW - Hi5
TTITLE8=PLUP - Hi5
TTITLE9=No man's land - Hi5
EXTD=YEAR: 2001
EXTT0=
EXTT1=
EXTT2=
EXTT3=
EXTT4=
EXTT5=
EXTT6=
EXTT7=
EXTT8=
EXTT9=
PLAYORDER=
